<svg width="34" height="44" viewBox="0 0 34 44" fill="none" xmlns="http://www.w3.org/2000/svg">
<path fill-rule="evenodd" clip-rule="evenodd" d="M17 12.375C19.2784 12.375 21.125 14.2216 21.125 16.5C21.125 18.7784 19.2784 20.625 17 20.625C14.7216 20.625 12.875 18.7784 12.875 16.5C12.875 14.2216 14.7216 12.375 17 12.375ZM17 23.375C20.7964 23.375 23.875 20.2978 23.875 16.5C23.875 12.7022 20.7964 9.625 17 9.625C13.2036 9.625 10.125 12.7022 10.125 16.5C10.125 20.2978 13.2036 23.375 17 23.375ZM17 0C26.1121 0 33.5 7.38788 33.5 16.5C33.5 23.3997 19.7431 44.0151 17 44C14.2995 44.0151 0.5 23.3062 0.5 16.5C0.5 7.38788 7.88787 0 17 0Z" fill="url(#paint0_linear_162_234)"/>
<defs>
<linearGradient id="paint0_linear_162_234" x1="17" y1="0" x2="17" y2="44" gradientUnits="userSpaceOnUse">
<stop stop-color="#CE5600"/>
<stop offset="1" stop-color="#FF8500"/>
</linearGradient>
</defs>
</svg>
