<svg width="248" height="43" viewBox="0 0 248 43" fill="none" xmlns="http://www.w3.org/2000/svg">
<g id="Group 1">
<g id="Vector" filter="url(#filter0_d_2_14)">
<path d="M26.3286 8.7872V12.083H11.4277C11.072 12.083 10.7198 12.1567 10.3913 12.2997C10.0628 12.4428 9.76437 12.6525 9.51316 12.9168C9.26196 13.1811 9.06289 13.4949 8.92736 13.8401C8.79182 14.1852 8.72249 14.5551 8.72333 14.9285V29.3326H6.75624C6.02337 29.3331 5.30657 29.1072 4.69514 28.6831C4.08371 28.259 3.6047 27.6554 3.31779 26.9475C3.10926 26.4584 3.00099 25.9288 3.00001 25.393V7.10928C2.99917 6.81243 3.0541 6.51831 3.16165 6.24376C3.26919 5.96921 3.42725 5.71961 3.62677 5.50924C3.82629 5.29887 4.06337 5.13185 4.32444 5.01774C4.58551 4.90364 4.86545 4.84468 5.14824 4.84424H22.5661C22.8695 4.84369 23.1718 4.88404 23.4654 4.96433C24.2824 5.17121 25.0092 5.6609 25.5287 6.35445C26.0481 7.04799 26.3299 7.90497 26.3286 8.7872Z" fill="#1D1D1B"/>
<path d="M26.3286 8.7872V12.083H11.4277C11.072 12.083 10.7198 12.1567 10.3913 12.2997C10.0628 12.4428 9.76437 12.6525 9.51316 12.9168C9.26196 13.1811 9.06289 13.4949 8.92736 13.8401C8.79182 14.1852 8.72249 14.5551 8.72333 14.9285V29.3326H6.75624C6.02337 29.3331 5.30657 29.1072 4.69514 28.6831C4.08371 28.259 3.6047 27.6554 3.31779 26.9475C3.10926 26.4584 3.00099 25.9288 3.00001 25.393V7.10928C2.99917 6.81243 3.0541 6.51831 3.16165 6.24376C3.26919 5.96921 3.42725 5.71961 3.62677 5.50924C3.82629 5.29887 4.06337 5.13185 4.32444 5.01774C4.58551 4.90364 4.86545 4.84468 5.14824 4.84424H22.5661C22.8695 4.84369 23.1718 4.88404 23.4654 4.96433C24.2824 5.17121 25.0092 5.6609 25.5287 6.35445C26.0481 7.04799 26.3299 7.90497 26.3286 8.7872Z" stroke="#1D1D1B" stroke-width="0.190671" stroke-miterlimit="10"/>
</g>
<g id="Vector_2" filter="url(#filter1_d_2_14)">
<path d="M35.0518 19.1783V35.7841C35.0514 36.3022 34.9537 36.8151 34.7643 37.2935C34.575 37.7719 34.2977 38.2065 33.9482 38.5724C33.5988 38.9383 33.1841 39.2283 32.7279 39.4258C32.2716 39.6234 31.7828 39.7246 31.2892 39.7237H15.4794C14.7461 39.7245 14.0288 39.4987 13.4168 39.0746C12.8048 38.6505 12.3252 38.0467 12.0378 37.3386C11.8307 36.849 11.7225 36.3197 11.72 35.7841V17.5004C11.7191 17.2035 11.7741 16.9094 11.8816 16.6349C11.9892 16.3603 12.1472 16.1107 12.3467 15.9004C12.5463 15.69 12.7833 15.523 13.0444 15.4089C13.3055 15.2948 13.5854 15.2358 13.8682 15.2354H31.2892C31.5926 15.2348 31.8949 15.2752 32.1885 15.3555C33.0056 15.5623 33.7324 16.052 34.2518 16.7456C34.7713 17.4391 35.0531 18.2961 35.0518 19.1783Z" fill="url(#paint0_linear_2_14)"/>
</g>
<g id="Vector_3" filter="url(#filter2_d_2_14)">
<path d="M67.5391 10.4515C68.2013 10.4524 68.8361 10.7289 69.3044 11.2204C69.7726 11.7119 70.036 12.3783 70.0369 13.0735V34.673L69.9988 34.713V35.13C69.9711 35.1656 69.9575 35.2109 69.9606 35.2568C69.9609 35.2678 69.9591 35.2788 69.9553 35.2891C69.9514 35.2994 69.9457 35.3088 69.9384 35.3168C69.9251 35.3349 69.9183 35.3573 69.9193 35.3802C69.9174 35.4121 69.9037 35.442 69.8812 35.4636C69.8872 35.5226 69.8725 35.5819 69.8399 35.6304C69.8379 35.6623 69.8243 35.6922 69.8017 35.7138C69.7967 35.778 69.7683 35.8378 69.7223 35.8806V35.9206C69.6981 35.9449 69.6777 35.973 69.6619 36.004C69.6468 36.0354 69.6263 36.0636 69.6015 36.0874V36.1307C69.5777 36.1554 69.5574 36.1834 69.5411 36.2141C69.5173 36.2511 69.4827 36.2792 69.4426 36.2942V36.3376L69.2837 36.5044L69.2043 36.5877L69.1248 36.6711C69.0518 36.7163 68.9854 36.7725 68.9278 36.8379C68.8925 36.8531 68.8593 36.8733 68.8293 36.898C68.8 36.9246 68.7667 36.946 68.7308 36.9614H68.6895C68.6698 36.9858 68.6455 37.0058 68.6182 37.0202C68.5909 37.0345 68.5611 37.0429 68.5306 37.0448C68.5052 37.0448 68.4925 37.0448 68.4925 37.0881C68.4584 37.0832 68.4238 37.0902 68.3939 37.1081C68.3627 37.1254 68.3273 37.1324 68.2922 37.1281L68.216 37.1682C68.2049 37.1676 68.1939 37.1694 68.1835 37.1734C68.1732 37.1774 68.1637 37.1836 68.1556 37.1915C68.1256 37.209 68.0911 37.216 68.0571 37.2115H67.9935C67.9827 37.2104 67.9718 37.2115 67.9614 37.215C67.951 37.2184 67.9414 37.2241 67.9332 37.2316C67.9032 37.249 67.8687 37.256 67.8346 37.2516H67.2404C67.2295 37.2528 67.2186 37.2516 67.2082 37.2482C67.1978 37.2447 67.1882 37.2391 67.18 37.2316C67.163 37.2171 67.1414 37.2099 67.1196 37.2115H67.002C66.9686 37.1813 66.9254 37.1658 66.8813 37.1682C66.871 37.1691 66.8605 37.1678 66.8507 37.1644C66.8409 37.1609 66.8318 37.1554 66.8241 37.1482C66.8068 37.1342 66.7855 37.1271 66.7637 37.1281C66.7419 37.1298 66.7203 37.1226 66.7033 37.1081C66.6956 37.1009 66.6865 37.0954 66.6767 37.0919C66.6668 37.0885 66.6565 37.0872 66.6461 37.0881C66.6175 37.0881 66.6048 37.0881 66.6048 37.0648C66.6048 37.0414 66.6048 37.0448 66.5667 37.0448L66.4078 36.9614L66.3665 36.9213C66.3053 36.9161 66.2483 36.8862 66.2076 36.8379L66.1694 36.7946L66.0106 36.7112C66.0106 36.6845 66.0042 36.6711 65.9915 36.6711C65.9915 36.6711 65.9692 36.6711 65.9692 36.6278C65.9692 36.5844 65.9057 36.6011 65.8517 36.5444L65.7722 36.461L65.7341 36.421L51.7515 19.8986V34.673C51.7541 35.0126 51.6922 35.3494 51.5694 35.6637C51.4467 35.978 51.2655 36.2634 51.0366 36.5035C50.8076 36.7435 50.5354 36.9333 50.2359 37.0617C49.9363 37.1901 49.6154 37.2547 49.2919 37.2516C48.9651 37.2577 48.6406 37.1946 48.3376 37.0663C48.0346 36.9379 47.7593 36.7468 47.5282 36.5044C47.2911 36.2695 47.1034 35.9853 46.977 35.67C46.8506 35.3546 46.7883 35.0151 46.7941 34.673V12.8233L46.8354 12.7832C46.8857 12.1413 47.1689 11.5442 47.6267 11.1153C47.8667 10.8844 48.1485 10.7063 48.4552 10.5917C48.762 10.4771 49.0876 10.4283 49.4126 10.4482C49.7398 10.4561 50.0615 10.5383 50.3556 10.6891C50.6496 10.84 50.909 11.056 51.116 11.3222L65.0985 27.8012V13.0735C65.0934 12.7306 65.1538 12.3902 65.2761 12.0722C65.3983 11.7542 65.58 11.4652 65.8103 11.2221C66.0322 10.9754 66.3004 10.7795 66.5979 10.6469C66.8954 10.5143 67.2159 10.4478 67.5391 10.4515Z" fill="#1D1D1B"/>
<path d="M67.5391 10.4515C68.2013 10.4524 68.8361 10.7289 69.3044 11.2204C69.7726 11.7119 70.036 12.3783 70.0369 13.0735V34.673L69.9988 34.713V35.13C69.9711 35.1656 69.9575 35.2109 69.9606 35.2568C69.9609 35.2678 69.9591 35.2788 69.9553 35.2891C69.9514 35.2994 69.9457 35.3088 69.9384 35.3168C69.9251 35.3349 69.9183 35.3573 69.9193 35.3802C69.9174 35.4121 69.9037 35.442 69.8812 35.4636C69.8872 35.5226 69.8725 35.5819 69.8399 35.6304C69.8379 35.6623 69.8243 35.6922 69.8017 35.7138C69.7967 35.778 69.7683 35.8378 69.7223 35.8806V35.9206C69.6981 35.9449 69.6777 35.973 69.6619 36.004C69.6468 36.0354 69.6263 36.0636 69.6015 36.0874V36.1307C69.5777 36.1554 69.5574 36.1834 69.5411 36.2141C69.5173 36.2511 69.4827 36.2792 69.4426 36.2942V36.3376L69.2837 36.5044L69.2043 36.5877L69.1248 36.6711C69.0518 36.7163 68.9854 36.7725 68.9278 36.8379C68.8925 36.8531 68.8593 36.8733 68.8293 36.898C68.8 36.9246 68.7667 36.946 68.7308 36.9614H68.6895C68.6698 36.9858 68.6455 37.0058 68.6182 37.0202C68.5909 37.0345 68.5611 37.0429 68.5306 37.0448C68.5052 37.0448 68.4925 37.0448 68.4925 37.0881C68.4584 37.0832 68.4238 37.0902 68.3939 37.1081C68.3627 37.1254 68.3273 37.1324 68.2922 37.1281L68.216 37.1682C68.2049 37.1676 68.1939 37.1694 68.1835 37.1734C68.1732 37.1774 68.1637 37.1836 68.1556 37.1915C68.1256 37.209 68.0911 37.216 68.0571 37.2115H67.9935C67.9827 37.2104 67.9718 37.2115 67.9614 37.215C67.951 37.2184 67.9414 37.2241 67.9332 37.2316C67.9032 37.249 67.8687 37.256 67.8346 37.2516H67.2404C67.2295 37.2528 67.2186 37.2516 67.2082 37.2482C67.1978 37.2447 67.1882 37.2391 67.18 37.2316C67.163 37.2171 67.1414 37.2099 67.1196 37.2115H67.002C66.9686 37.1813 66.9254 37.1658 66.8813 37.1682C66.871 37.1691 66.8605 37.1678 66.8507 37.1644C66.8409 37.1609 66.8318 37.1554 66.8241 37.1482C66.8068 37.1342 66.7855 37.1271 66.7637 37.1281C66.7419 37.1298 66.7203 37.1226 66.7033 37.1081C66.6956 37.1009 66.6865 37.0954 66.6767 37.0919C66.6668 37.0885 66.6565 37.0872 66.6461 37.0881C66.6175 37.0881 66.6048 37.0881 66.6048 37.0648C66.6048 37.0414 66.6048 37.0448 66.5667 37.0448L66.4078 36.9614L66.3665 36.9213C66.3053 36.9161 66.2483 36.8862 66.2076 36.8379L66.1694 36.7946L66.0106 36.7112C66.0106 36.6845 66.0042 36.6711 65.9915 36.6711C65.9915 36.6711 65.9692 36.6711 65.9692 36.6278C65.9692 36.5844 65.9057 36.6011 65.8517 36.5444L65.7722 36.461L65.7341 36.421L51.7515 19.8986V34.673C51.7541 35.0126 51.6922 35.3494 51.5694 35.6637C51.4467 35.978 51.2655 36.2634 51.0366 36.5035C50.8076 36.7435 50.5354 36.9333 50.2359 37.0617C49.9363 37.1901 49.6154 37.2547 49.2919 37.2516C48.9651 37.2577 48.6406 37.1946 48.3376 37.0663C48.0346 36.9379 47.7593 36.7468 47.5282 36.5044C47.2911 36.2695 47.1034 35.9853 46.977 35.67C46.8506 35.3546 46.7883 35.0151 46.7941 34.673V12.8233L46.8354 12.7832C46.8857 12.1413 47.1689 11.5442 47.6267 11.1153C47.8667 10.8844 48.1485 10.7063 48.4552 10.5917C48.762 10.4771 49.0876 10.4283 49.4126 10.4482C49.7398 10.4561 50.0615 10.5383 50.3556 10.6891C50.6496 10.84 50.909 11.056 51.116 11.3222L65.0985 27.8012V13.0735C65.0934 12.7306 65.1538 12.3902 65.2761 12.0722C65.3983 11.7542 65.58 11.4652 65.8103 11.2221C66.0322 10.9754 66.3004 10.7795 66.5979 10.6469C66.8954 10.5143 67.2159 10.4478 67.5391 10.4515Z" stroke="#1D1D1B" stroke-width="1.58893" stroke-miterlimit="10"/>
</g>
<g id="Vector_4" filter="url(#filter3_d_2_14)">
<path d="M96.7592 10.4516C97.0851 10.4455 97.4086 10.5109 97.709 10.6436C98.0094 10.7763 98.2802 10.9733 98.5039 11.2221C98.7353 11.4646 98.9178 11.7535 99.0406 12.0715C99.1635 12.3896 99.2241 12.7304 99.2189 13.0735V23.895C99.2289 25.6771 98.8836 27.4418 98.2052 29.0755C96.9028 32.275 94.4748 34.8238 91.4268 36.1908C89.8597 36.8908 88.1741 37.2516 86.4709 37.2516C84.7678 37.2516 83.0822 36.8908 81.5151 36.1908C78.4688 34.8212 76.0415 32.2733 74.7367 29.0755C74.0564 27.442 73.7079 25.6777 73.7134 23.895V13.0735C73.7143 12.3784 73.9777 11.712 74.446 11.2205C74.9142 10.729 75.549 10.4524 76.2112 10.4516C76.5368 10.4457 76.86 10.5109 77.1603 10.6429C77.4606 10.775 77.7315 10.9711 77.9559 11.2188C78.1859 11.4615 78.3673 11.75 78.4895 12.0674C78.6118 12.3847 78.6724 12.7246 78.6677 13.0668V23.8683C78.6588 24.9602 78.8677 26.042 79.281 27.044C79.6804 28.0096 80.2448 28.8903 80.9462 29.6426C81.6555 30.3942 82.4974 30.9936 83.425 31.4073C84.39 31.8396 85.4296 32.0588 86.4789 32.0511C87.5146 32.0561 88.5401 31.8369 89.4915 31.4073C91.3671 30.5698 92.8643 29.0077 93.6735 27.044C94.0879 26.0422 94.2979 24.9604 94.2901 23.8683H94.2487V13.0668C94.2513 12.3729 94.5154 11.7082 94.9835 11.2181C95.4516 10.728 96.0854 10.4524 96.7465 10.4516H96.7592Z" fill="#1D1D1B"/>
<path d="M96.7592 10.4516C97.0851 10.4455 97.4086 10.5109 97.709 10.6436C98.0094 10.7763 98.2802 10.9733 98.5039 11.2221C98.7353 11.4646 98.9178 11.7535 99.0406 12.0715C99.1635 12.3896 99.2241 12.7304 99.2189 13.0735V23.895C99.2289 25.6771 98.8836 27.4418 98.2052 29.0755C96.9028 32.275 94.4748 34.8238 91.4268 36.1908C89.8597 36.8908 88.1741 37.2516 86.4709 37.2516C84.7678 37.2516 83.0822 36.8908 81.5151 36.1908C78.4688 34.8212 76.0415 32.2733 74.7367 29.0755C74.0564 27.442 73.7079 25.6777 73.7134 23.895V13.0735C73.7143 12.3784 73.9777 11.712 74.446 11.2205C74.9142 10.729 75.549 10.4524 76.2112 10.4516C76.5368 10.4457 76.86 10.5109 77.1603 10.6429C77.4606 10.775 77.7315 10.9711 77.9559 11.2188C78.1859 11.4615 78.3673 11.75 78.4895 12.0674C78.6118 12.3847 78.6724 12.7246 78.6677 13.0668V23.8683C78.6588 24.9602 78.8677 26.042 79.281 27.044C79.6804 28.0096 80.2448 28.8903 80.9462 29.6426C81.6555 30.3942 82.4974 30.9936 83.425 31.4073C84.39 31.8396 85.4296 32.0588 86.4789 32.0511C87.5146 32.0561 88.5401 31.8369 89.4915 31.4073C91.3671 30.5698 92.8643 29.0077 93.6735 27.044C94.0879 26.0422 94.2979 24.9604 94.2901 23.8683H94.2487V13.0668C94.2513 12.3729 94.5154 11.7082 94.9835 11.2181C95.4516 10.728 96.0854 10.4524 96.7465 10.4516H96.7592Z" stroke="#1D1D1B" stroke-width="1.58893" stroke-miterlimit="10"/>
</g>
<g id="Vector_5" filter="url(#filter4_d_2_14)">
<path d="M114.997 12.8601C116.708 12.8474 118.403 13.2086 119.973 13.9209C123.02 15.2905 125.447 17.8385 126.752 21.0362C127.43 22.685 127.775 24.4641 127.762 26.2601V34.7498C127.76 35.4444 127.496 36.1098 127.028 36.6009C126.56 37.0921 125.926 37.3691 125.265 37.3718C124.939 37.3778 124.615 37.3124 124.315 37.1797C124.014 37.047 123.744 36.85 123.52 36.6012C123.29 36.3581 123.108 36.069 122.986 35.7511C122.863 35.4331 122.803 35.0927 122.808 34.7498V26.2668C122.814 25.1655 122.605 24.0746 122.195 23.0611C121.41 21.105 119.927 19.5487 118.064 18.7245C117.102 18.293 116.065 18.0738 115.019 18.0807C113.979 18.0732 112.949 18.2924 111.994 18.7245C111.075 19.1437 110.237 19.7362 109.522 20.4724C108.792 21.2325 108.213 22.1374 107.82 23.1345C107.426 24.1316 107.226 25.2009 107.23 26.2801V34.7698C107.235 35.1135 107.174 35.4547 107.05 35.7728C106.926 36.091 106.742 36.3795 106.509 36.6212C106.283 36.8705 106.01 37.0678 105.707 37.2005C105.405 37.3331 105.079 37.3983 104.752 37.3918C104.421 37.3971 104.092 37.3315 103.786 37.199C103.48 37.0665 103.203 36.8699 102.972 36.6212C102.735 36.3839 102.55 36.0955 102.429 35.7759C102.309 35.4563 102.255 35.1131 102.273 34.7698V6.58203C102.267 6.2411 102.327 5.90249 102.452 5.58737C102.576 5.27225 102.76 4.98741 102.994 4.75066C103.464 4.26938 104.095 4 104.752 4C105.408 4 106.039 4.26938 106.509 4.75066C106.743 4.98741 106.927 5.27225 107.052 5.58737C107.176 5.90249 107.237 6.2411 107.23 6.58203L107.189 15.6955C108.292 14.8132 109.515 14.1113 110.818 13.614C112.158 13.1066 113.573 12.8514 114.997 12.8601Z" fill="#1D1D1B"/>
<path d="M114.997 12.8601C116.708 12.8474 118.403 13.2086 119.973 13.9209C123.02 15.2905 125.447 17.8385 126.752 21.0362C127.43 22.685 127.775 24.4641 127.762 26.2601V34.7498C127.76 35.4444 127.496 36.1098 127.028 36.6009C126.56 37.0921 125.926 37.3691 125.265 37.3718C124.939 37.3778 124.615 37.3124 124.315 37.1797C124.014 37.047 123.744 36.85 123.52 36.6012C123.29 36.3581 123.108 36.069 122.986 35.7511C122.863 35.4331 122.803 35.0927 122.808 34.7498V26.2668C122.814 25.1655 122.605 24.0746 122.195 23.0611C121.41 21.105 119.927 19.5487 118.064 18.7245C117.102 18.293 116.065 18.0738 115.019 18.0807C113.979 18.0732 112.949 18.2924 111.994 18.7245C111.075 19.1437 110.237 19.7362 109.522 20.4724C108.792 21.2325 108.213 22.1374 107.82 23.1345C107.426 24.1316 107.226 25.2009 107.23 26.2801V34.7698C107.235 35.1135 107.174 35.4547 107.05 35.7728C106.926 36.091 106.742 36.3795 106.509 36.6212C106.283 36.8705 106.01 37.0678 105.707 37.2005C105.405 37.3331 105.079 37.3983 104.752 37.3918C104.421 37.3971 104.092 37.3315 103.786 37.199C103.48 37.0665 103.203 36.8699 102.972 36.6212C102.735 36.3839 102.55 36.0955 102.429 35.7759C102.309 35.4563 102.255 35.1131 102.273 34.7698V6.58203C102.267 6.2411 102.327 5.90249 102.452 5.58737C102.576 5.27225 102.76 4.98741 102.994 4.75066C103.464 4.26938 104.095 4 104.752 4C105.408 4 106.039 4.26938 106.509 4.75066C106.743 4.98741 106.927 5.27225 107.052 5.58737C107.176 5.90249 107.237 6.2411 107.23 6.58203L107.189 15.6955C108.292 14.8132 109.515 14.1113 110.818 13.614C112.158 13.1066 113.573 12.8514 114.997 12.8601Z" stroke="#1D1D1B" stroke-width="1.58893" stroke-miterlimit="10"/>
</g>
<g id="Vector_6" filter="url(#filter5_d_2_14)">
<path d="M155.556 10.4516C155.882 10.4455 156.205 10.5109 156.506 10.6436C156.806 10.7763 157.077 10.9733 157.301 11.2221C157.531 11.4652 157.713 11.7543 157.835 12.0723C157.957 12.3902 158.018 12.7307 158.012 13.0735V23.895C158.022 25.6767 157.678 27.4411 157.002 29.0755C155.697 32.2733 153.27 34.8212 150.224 36.1908C148.656 36.8908 146.971 37.2516 145.268 37.2516C143.565 37.2516 141.879 36.8908 140.312 36.1908C137.264 34.8227 134.835 32.2745 133.53 29.0755C132.854 27.4411 132.51 25.6767 132.52 23.895V13.0735C132.522 12.379 132.786 11.7136 133.254 11.2224C133.722 10.7313 134.356 10.4542 135.018 10.4516C135.343 10.4457 135.666 10.5109 135.967 10.6429C136.267 10.775 136.538 10.9711 136.762 11.2188C136.993 11.4608 137.176 11.7491 137.299 12.0666C137.421 12.3841 137.482 12.7242 137.477 13.0668V23.8683C137.468 24.9602 137.677 26.042 138.091 27.044C138.49 28.0096 139.054 28.8903 139.756 29.6426C140.479 30.4097 141.34 31.0179 142.289 31.4314C143.239 31.845 144.257 32.0556 145.285 32.0511C146.322 32.0561 147.348 31.8369 148.301 31.4073C150.177 30.5698 151.674 29.0077 152.483 27.044C152.896 26.042 153.105 24.9602 153.096 23.8683H153.058V13.0668C153.059 12.723 153.124 12.3825 153.249 12.065C153.375 11.7475 153.559 11.459 153.791 11.2162C154.023 10.9733 154.298 10.7808 154.601 10.6496C154.904 10.5184 155.228 10.4511 155.556 10.4516Z" fill="#1D1D1B"/>
<path d="M155.556 10.4516C155.882 10.4455 156.205 10.5109 156.506 10.6436C156.806 10.7763 157.077 10.9733 157.301 11.2221C157.531 11.4652 157.713 11.7543 157.835 12.0723C157.957 12.3902 158.018 12.7307 158.012 13.0735V23.895C158.022 25.6767 157.678 27.4411 157.002 29.0755C155.697 32.2733 153.27 34.8212 150.224 36.1908C148.656 36.8908 146.971 37.2516 145.268 37.2516C143.565 37.2516 141.879 36.8908 140.312 36.1908C137.264 34.8227 134.835 32.2745 133.53 29.0755C132.854 27.4411 132.51 25.6767 132.52 23.895V13.0735C132.522 12.379 132.786 11.7136 133.254 11.2224C133.722 10.7313 134.356 10.4542 135.018 10.4516C135.343 10.4457 135.666 10.5109 135.967 10.6429C136.267 10.775 136.538 10.9711 136.762 11.2188C136.993 11.4608 137.176 11.7491 137.299 12.0666C137.421 12.3841 137.482 12.7242 137.477 13.0668V23.8683C137.468 24.9602 137.677 26.042 138.091 27.044C138.49 28.0096 139.054 28.8903 139.756 29.6426C140.479 30.4097 141.34 31.0179 142.289 31.4314C143.239 31.845 144.257 32.0556 145.285 32.0511C146.322 32.0561 147.348 31.8369 148.301 31.4073C150.177 30.5698 151.674 29.0077 152.483 27.044C152.896 26.042 153.105 24.9602 153.096 23.8683H153.058V13.0668C153.059 12.723 153.124 12.3825 153.249 12.065C153.375 11.7475 153.559 11.459 153.791 11.2162C154.023 10.9733 154.298 10.7808 154.601 10.6496C154.904 10.5184 155.228 10.4511 155.556 10.4516Z" stroke="#1D1D1B" stroke-width="1.58893" stroke-miterlimit="10"/>
</g>
<g id="Vector_7" filter="url(#filter6_d_2_14)">
<path d="M185.574 37.2518C185.253 37.2605 184.933 37.1985 184.636 37.0698C184.339 36.9411 184.071 36.7486 183.849 36.5046C183.623 36.2632 183.445 35.9768 183.326 35.6623C183.207 35.3478 183.149 35.0115 183.156 34.6732V19.275L179.978 22.6108C179.362 23.2664 178.63 23.7898 177.823 24.152C177.02 24.5114 176.155 24.6952 175.281 24.6924C174.398 24.6952 173.524 24.5114 172.71 24.152C171.904 23.7994 171.177 23.2746 170.575 22.6108L167.368 19.2316V34.6732C167.375 35.0138 167.314 35.3522 167.191 35.6673C167.067 35.9824 166.883 36.2674 166.65 36.5046C166.177 36.9806 165.547 37.2464 164.891 37.2464C164.236 37.2464 163.606 36.9806 163.132 36.5046C162.899 36.2674 162.715 35.9824 162.592 35.6673C162.468 35.3522 162.408 35.0138 162.414 34.6732V13.0737C162.412 12.6032 162.532 12.141 162.763 11.7377C162.994 11.3343 163.326 11.0052 163.722 10.7863C164.119 10.5674 164.566 10.4671 165.013 10.4963C165.46 10.5256 165.891 10.6832 166.259 10.9521V10.9087L166.577 11.2023L173.635 18.6512C174.076 19.082 174.657 19.3206 175.259 19.3183C175.85 19.3153 176.418 19.0768 176.848 18.6512L184.157 10.9521H184.195C184.563 10.682 184.994 10.5233 185.442 10.4934C185.889 10.4636 186.336 10.5637 186.734 10.7828C187.131 11.002 187.463 11.3316 187.693 11.7357C187.924 12.1398 188.044 12.6027 188.04 13.0737V34.6732C188.044 35.0128 187.982 35.3497 187.86 35.6642C187.738 35.9786 187.557 36.2643 187.328 36.5045C187.1 36.7446 186.827 36.9344 186.528 37.0628C186.228 37.1911 185.907 37.2553 185.584 37.2518H185.574ZM204.324 10.4517C206.034 10.4437 207.728 10.8095 209.297 11.5258C212.351 12.8909 214.783 15.4447 216.082 18.6512C216.756 20.2987 217.098 22.0752 217.086 23.8684V34.6899C217.089 35.0295 217.028 35.3664 216.906 35.6809C216.784 35.9953 216.603 36.281 216.374 36.5212C216.145 36.7613 215.873 36.9511 215.573 37.0794C215.274 37.2078 214.953 37.272 214.629 37.2684C214.302 37.2748 213.977 37.2119 213.674 37.0835C213.37 36.9552 213.094 36.7639 212.862 36.5212C212.626 36.2862 212.439 36.0019 212.313 35.6866C212.187 35.3712 212.125 35.0317 212.132 34.6899V29.6861H204.324V29.6427C204.181 29.6795 204.035 29.6941 203.888 29.6861C203.04 29.6824 202.196 29.8232 201.39 30.1031C199.842 30.6332 198.494 31.6672 197.542 33.0553C197.066 33.7509 196.705 34.5256 196.474 35.347C196.462 35.3568 196.452 35.3694 196.445 35.3839C196.438 35.3983 196.434 35.4142 196.433 35.4304C196.432 35.4457 196.428 35.4607 196.422 35.4744C196.415 35.4882 196.406 35.5004 196.395 35.5105C196.246 36.0241 195.938 36.4712 195.521 36.7814C195.094 37.1018 194.58 37.2691 194.056 37.2585C193.732 37.2616 193.411 37.197 193.112 37.0686C192.812 36.9401 192.54 36.7504 192.311 36.5103C192.082 36.2703 191.901 35.9848 191.778 35.6706C191.656 35.3563 191.594 35.0195 191.596 34.6798V23.8684C191.586 22.29 191.855 20.7233 192.391 19.2483C193.023 17.4776 193.997 15.8627 195.251 14.5047C196.429 13.2554 197.816 12.2455 199.344 11.5258C200.913 10.8028 202.61 10.4367 204.324 10.4517ZM212.135 24.4622V23.8684C212.145 22.4658 211.803 21.0851 211.143 19.8654C211.145 19.8538 211.143 19.8419 211.14 19.8309C211.136 19.8199 211.129 19.81 211.121 19.802C211.107 19.7842 211.1 19.7616 211.102 19.7387L210.784 19.2383C210.679 19.0715 210.574 18.9047 210.466 18.7813C209.758 17.8162 208.85 17.0336 207.81 16.4929C206.723 15.9306 205.525 15.6449 204.314 15.6589C203.096 15.6499 201.895 15.9583 200.818 16.5563C199.775 17.1284 198.863 17.9307 198.143 18.908C197.639 19.6002 197.244 20.3729 196.973 21.1964C196.69 22.0544 196.549 22.9571 196.557 23.8651V26.944C197.599 26.1624 198.749 25.5527 199.967 25.136C201.233 24.7007 202.559 24.4822 203.891 24.4889H212.154L212.135 24.4622ZM242.502 10.4517C243.164 10.4543 243.798 10.7314 244.266 11.2226C244.734 11.7137 244.998 12.3791 245 13.0737V34.6732L244.959 34.7132V35.1302C244.931 35.1658 244.918 35.2111 244.921 35.257C244.922 35.2678 244.92 35.2787 244.917 35.289C244.914 35.2994 244.909 35.3089 244.902 35.317C244.894 35.3255 244.889 35.3356 244.886 35.3465C244.882 35.3575 244.881 35.369 244.883 35.3804C244.879 35.4127 244.865 35.4426 244.841 35.4638C244.848 35.5224 244.834 35.5815 244.803 35.6306C244.8 35.6629 244.785 35.6927 244.762 35.714C244.76 35.746 244.752 35.7772 244.738 35.8059C244.725 35.8346 244.706 35.86 244.682 35.8808V35.9208C244.66 35.9467 244.64 35.9746 244.622 36.0042C244.608 36.0355 244.589 36.0638 244.565 36.0876V36.1309C244.539 36.1537 244.518 36.1822 244.504 36.2143C244.48 36.2505 244.445 36.2783 244.406 36.2944V36.3378L244.247 36.5046L244.168 36.5879L244.088 36.6713C244.014 36.7157 243.948 36.772 243.891 36.8381C243.855 36.8544 243.821 36.8745 243.789 36.8982C243.76 36.9254 243.727 36.9469 243.691 36.9616H243.653C243.633 36.9857 243.608 37.0055 243.581 37.0198C243.554 37.0342 243.524 37.0427 243.494 37.045C243.465 37.045 243.453 37.045 243.453 37.0883C243.418 37.0839 243.384 37.0909 243.354 37.1083C243.324 37.1262 243.29 37.1333 243.255 37.1283L243.176 37.1684C243.154 37.1676 243.132 37.176 243.116 37.1917C243.086 37.2096 243.051 37.2167 243.017 37.2117H242.938C242.916 37.2107 242.895 37.2178 242.877 37.2318C242.847 37.2497 242.813 37.2567 242.779 37.2518H242.185C242.163 37.2528 242.141 37.2457 242.124 37.2318C242.116 37.2245 242.107 37.219 242.098 37.2156C242.088 37.2121 242.077 37.2108 242.067 37.2117H241.946C241.914 37.1817 241.872 37.1662 241.829 37.1684C241.807 37.17 241.785 37.1629 241.768 37.1484C241.76 37.1409 241.75 37.1352 241.74 37.1318C241.73 37.1283 241.719 37.1272 241.708 37.1283C241.698 37.1293 241.687 37.128 241.677 37.1245C241.667 37.1211 241.658 37.1156 241.651 37.1083C241.633 37.0944 241.612 37.0873 241.59 37.0883C241.565 37.0883 241.552 37.0883 241.552 37.065C241.552 37.0416 241.552 37.045 241.511 37.045L241.352 36.9616L241.314 36.9215C241.283 36.9193 241.254 36.9107 241.226 36.8964C241.199 36.8821 241.175 36.8623 241.155 36.8381L241.114 36.7948L240.955 36.7114C240.955 36.6847 240.948 36.6713 240.936 36.6713C240.936 36.6713 240.917 36.6713 240.917 36.628C240.917 36.5846 240.85 36.6013 240.799 36.5446L240.72 36.4612L240.678 36.4212L226.696 19.8988V34.6732C226.698 35.0126 226.636 35.349 226.514 35.6631C226.391 35.9772 226.21 36.2625 225.982 36.5025C225.753 36.7424 225.481 36.9323 225.182 37.0609C224.883 37.1896 224.562 37.2544 224.239 37.2518C223.912 37.2581 223.587 37.1952 223.283 37.0669C222.98 36.9385 222.704 36.7472 222.472 36.5046C222.236 36.2695 222.048 35.9852 221.923 35.6699C221.797 35.3545 221.735 35.015 221.741 34.6732V12.8235L221.78 12.7834C221.839 12.1204 222.141 11.5074 222.621 11.0722C223.101 10.6371 223.723 10.4136 224.357 10.4484C224.684 10.4558 225.006 10.5378 225.3 10.6887C225.594 10.8396 225.853 11.0558 226.06 11.3224L240.043 27.8014V13.0737C240.037 12.7305 240.098 12.3897 240.221 12.0717C240.344 11.7536 240.526 11.4648 240.758 11.2223C240.981 10.9739 241.251 10.7771 241.551 10.6444C241.851 10.5117 242.174 10.4461 242.499 10.4517H242.502Z" fill="url(#paint1_linear_2_14)"/>
</g>
</g>
<defs>
<filter id="filter0_d_2_14" x="0.108273" y="1.95251" width="29.1123" height="30.2717" filterUnits="userSpaceOnUse" color-interpolation-filters="sRGB">
<feFlood flood-opacity="0" result="BackgroundImageFix"/>
<feColorMatrix in="SourceAlpha" type="matrix" values="0 0 0 0 0 0 0 0 0 0 0 0 0 0 0 0 0 0 127 0" result="hardAlpha"/>
<feOffset/>
<feGaussianBlur stdDeviation="1.39826"/>
<feComposite in2="hardAlpha" operator="out"/>
<feColorMatrix type="matrix" values="0 0 0 0 0 0 0 0 0 0 0 0 0 0 0 0 0 0 0.62 0"/>
<feBlend mode="normal" in2="BackgroundImageFix" result="effect1_dropShadow_2_14"/>
<feBlend mode="normal" in="SourceGraphic" in2="effect1_dropShadow_2_14" result="shape"/>
</filter>
<filter id="filter1_d_2_14" x="8.92346" y="12.4388" width="28.9248" height="30.0813" filterUnits="userSpaceOnUse" color-interpolation-filters="sRGB">
<feFlood flood-opacity="0" result="BackgroundImageFix"/>
<feColorMatrix in="SourceAlpha" type="matrix" values="0 0 0 0 0 0 0 0 0 0 0 0 0 0 0 0 0 0 127 0" result="hardAlpha"/>
<feOffset/>
<feGaussianBlur stdDeviation="1.39826"/>
<feComposite in2="hardAlpha" operator="out"/>
<feColorMatrix type="matrix" values="0 0 0 0 0 0 0 0 0 0 0 0 0 0 0 0 0 0 0.62 0"/>
<feBlend mode="normal" in2="BackgroundImageFix" result="effect1_dropShadow_2_14"/>
<feBlend mode="normal" in="SourceGraphic" in2="effect1_dropShadow_2_14" result="shape"/>
</filter>
<filter id="filter2_d_2_14" x="43.2028" y="6.8529" width="30.4251" height="33.991" filterUnits="userSpaceOnUse" color-interpolation-filters="sRGB">
<feFlood flood-opacity="0" result="BackgroundImageFix"/>
<feColorMatrix in="SourceAlpha" type="matrix" values="0 0 0 0 0 0 0 0 0 0 0 0 0 0 0 0 0 0 127 0" result="hardAlpha"/>
<feOffset/>
<feGaussianBlur stdDeviation="1.39826"/>
<feComposite in2="hardAlpha" operator="out"/>
<feColorMatrix type="matrix" values="0 0 0 0 0 0 0 0 0 0 0 0 0 0 0 0 0 0 0.62 0"/>
<feBlend mode="normal" in2="BackgroundImageFix" result="effect1_dropShadow_2_14"/>
<feBlend mode="normal" in="SourceGraphic" in2="effect1_dropShadow_2_14" result="shape"/>
</filter>
<filter id="filter3_d_2_14" x="70.1224" y="6.86023" width="32.6878" height="33.9822" filterUnits="userSpaceOnUse" color-interpolation-filters="sRGB">
<feFlood flood-opacity="0" result="BackgroundImageFix"/>
<feColorMatrix in="SourceAlpha" type="matrix" values="0 0 0 0 0 0 0 0 0 0 0 0 0 0 0 0 0 0 127 0" result="hardAlpha"/>
<feOffset/>
<feGaussianBlur stdDeviation="1.39826"/>
<feComposite in2="hardAlpha" operator="out"/>
<feColorMatrix type="matrix" values="0 0 0 0 0 0 0 0 0 0 0 0 0 0 0 0 0 0 0.62 0"/>
<feBlend mode="normal" in2="BackgroundImageFix" result="effect1_dropShadow_2_14"/>
<feBlend mode="normal" in="SourceGraphic" in2="effect1_dropShadow_2_14" result="shape"/>
</filter>
<filter id="filter4_d_2_14" x="98.6786" y="0.409054" width="32.6751" height="40.574" filterUnits="userSpaceOnUse" color-interpolation-filters="sRGB">
<feFlood flood-opacity="0" result="BackgroundImageFix"/>
<feColorMatrix in="SourceAlpha" type="matrix" values="0 0 0 0 0 0 0 0 0 0 0 0 0 0 0 0 0 0 127 0" result="hardAlpha"/>
<feOffset/>
<feGaussianBlur stdDeviation="1.39826"/>
<feComposite in2="hardAlpha" operator="out"/>
<feColorMatrix type="matrix" values="0 0 0 0 0 0 0 0 0 0 0 0 0 0 0 0 0 0 0.62 0"/>
<feBlend mode="normal" in2="BackgroundImageFix" result="effect1_dropShadow_2_14"/>
<feBlend mode="normal" in="SourceGraphic" in2="effect1_dropShadow_2_14" result="shape"/>
</filter>
<filter id="filter5_d_2_14" x="128.929" y="6.86023" width="32.6751" height="33.9822" filterUnits="userSpaceOnUse" color-interpolation-filters="sRGB">
<feFlood flood-opacity="0" result="BackgroundImageFix"/>
<feColorMatrix in="SourceAlpha" type="matrix" values="0 0 0 0 0 0 0 0 0 0 0 0 0 0 0 0 0 0 127 0" result="hardAlpha"/>
<feOffset/>
<feGaussianBlur stdDeviation="1.39826"/>
<feComposite in2="hardAlpha" operator="out"/>
<feColorMatrix type="matrix" values="0 0 0 0 0 0 0 0 0 0 0 0 0 0 0 0 0 0 0.62 0"/>
<feBlend mode="normal" in2="BackgroundImageFix" result="effect1_dropShadow_2_14"/>
<feBlend mode="normal" in="SourceGraphic" in2="effect1_dropShadow_2_14" result="shape"/>
</filter>
<filter id="filter6_d_2_14" x="159.617" y="7.64831" width="88.1797" height="32.4172" filterUnits="userSpaceOnUse" color-interpolation-filters="sRGB">
<feFlood flood-opacity="0" result="BackgroundImageFix"/>
<feColorMatrix in="SourceAlpha" type="matrix" values="0 0 0 0 0 0 0 0 0 0 0 0 0 0 0 0 0 0 127 0" result="hardAlpha"/>
<feOffset/>
<feGaussianBlur stdDeviation="1.39826"/>
<feComposite in2="hardAlpha" operator="out"/>
<feColorMatrix type="matrix" values="0 0 0 0 0 0 0 0 0 0 0 0 0 0 0 0 0 0 0.62 0"/>
<feBlend mode="normal" in2="BackgroundImageFix" result="effect1_dropShadow_2_14"/>
<feBlend mode="normal" in="SourceGraphic" in2="effect1_dropShadow_2_14" result="shape"/>
</filter>
<linearGradient id="paint0_linear_2_14" x1="11.7232" y1="27.4812" x2="35.0518" y2="27.4812" gradientUnits="userSpaceOnUse">
<stop stop-color="#FFB100"/>
<stop offset="1" stop-color="#D45800"/>
</linearGradient>
<linearGradient id="paint1_linear_2_14" x1="162.414" y1="23.8517" x2="244.997" y2="23.8517" gradientUnits="userSpaceOnUse">
<stop stop-color="#FFB100"/>
<stop offset="1" stop-color="#D45800"/>
</linearGradient>
</defs>
</svg>
